<svg width="375" height="469" viewBox="0 0 375 469" fill="none" xmlns="http://www.w3.org/2000/svg">
<path opacity="0.18" d="M491.512 168.316C495.607 180.15 496.103 192.494 492.966 204.483C489.829 216.472 483.135 227.814 473.354 237.715C458.75 252.222 437.93 263.07 424.965 278.348C396.94 311.33 411.983 356.368 386.279 390.345C364.794 418.768 320.283 432.731 278.953 444.716C246.498 454.119 213.72 463.582 179.318 467.371C144.917 471.161 107.919 468.757 78.1093 455.694C53.5252 444.953 35.4644 427.923 18.7829 410.916C-22.2231 369.076 -59.2859 323.516 -71.8782 272.9C-84.4704 222.284 -68.7626 165.509 -17.1278 130.49C8.00806 113.436 40.9329 101.676 58.6692 80.2286C77.2818 57.7272 77.5414 26.3318 106.474 10.6518C117.152 4.86067 130.426 2.17234 143.602 0.893314C175.325 -2.08672 207.521 2.4334 235.464 13.7902C263.813 25.3843 287.083 43.8118 317.963 51.2254C357.93 60.83 409.224 53.4519 435.788 81.8747C457.127 104.731 482.035 141.693 491.512 168.316Z" fill="#FF4D80"/>
</svg>
