<svg width="406" height="306" viewBox="0 0 406 306" fill="none" xmlns="http://www.w3.org/2000/svg">
<path d="M266.641 128.021H225.086V148.899H266.641V128.021Z" fill="#FFC4D8"/>
<path d="M291.112 51.5711C296.718 51.5711 301.262 47.0267 301.262 41.4211C301.262 35.8154 296.718 31.2711 291.112 31.2711C285.506 31.2711 280.962 35.8154 280.962 41.4211C280.962 47.0267 285.506 51.5711 291.112 51.5711Z" fill="#24285B"/>
<path opacity="0.45" d="M203 274.719C291.374 274.719 363.015 266.035 363.015 255.322C363.015 244.61 291.374 235.925 203 235.925C114.626 235.925 42.9852 244.61 42.9852 255.322C42.9852 266.035 114.626 274.719 203 274.719Z" fill="#FFC4D8"/>
<path d="M235.663 251.628C235.663 251.628 234.972 255.241 231.927 255.992C228.882 256.743 228.548 259.89 231.45 260.235C234.353 260.58 240.941 255.88 240.941 255.88L239.794 250.267L235.663 251.628Z" fill="#FF4D80"/>
<path d="M261.748 251.628C261.748 251.628 261.068 255.241 258.013 255.992C254.958 256.743 254.643 259.89 257.536 260.235C260.429 260.58 267.036 255.88 267.036 255.88L265.93 250.267L261.748 251.628Z" fill="#FF4D80"/>
<path d="M300.075 155.121H88.3152V248.045H300.075V155.121Z" fill="#FFA6BF"/>
<path d="M300.075 148.899H88.3152V163.475H300.075V148.899Z" fill="#FFC4D8"/>
<path d="M289.123 203.466H280.15V251.831H289.123V203.466Z" fill="#FFD200"/>
<path opacity="0.08" d="M289.123 203.466H280.15V251.831H289.123V203.466Z" fill="black"/>
<path d="M99.0742 163.475H88.3152V248.055H99.0742V163.475Z" fill="#FFC4D8"/>
<path opacity="0.61" d="M143.978 163.475H99.064V248.055H143.978V163.475Z" fill="#FFC4D8"/>
<path d="M299.892 163.475H289.133V248.055H299.892V163.475Z" fill="#FFC4D8"/>
<path opacity="0.08" d="M245.498 148.94L229.441 148.839L210.399 178.375C205.461 186.052 202.586 194.872 202.052 203.985C201.519 213.097 203.345 222.193 207.354 230.394L216.002 248.095H299.922L300.115 210.317L300.785 152.919L245.498 148.94Z" fill="black"/>
<path d="M132.163 123.311L126.388 148.798H158.969L157.63 145.367H144.993L147.155 124.215L132.163 123.311Z" fill="#FFA6BF"/>
<path d="M178.021 73.3326H97.5009V128.021H178.021V73.3326Z" fill="#FF4D80"/>
<path opacity="0.46" d="M123.972 81.4324H106.301V103.346H123.972V81.4324Z" fill="white"/>
<path opacity="0.46" d="M169.221 81.4324H128.814V103.346H169.221V81.4324Z" fill="white"/>
<path opacity="0.46" d="M169.211 107.853H106.301V119.911H169.211V107.853Z" fill="white"/>
<path d="M178.021 123.311H97.5009V133.664H178.021V123.311Z" fill="#FFC4D8"/>
<path d="M140.75 131.117C142.404 131.117 143.744 129.776 143.744 128.122C143.744 126.469 142.404 125.128 140.75 125.128C139.096 125.128 137.756 126.469 137.756 128.122C137.756 129.776 139.096 131.117 140.75 131.117Z" fill="#FFA6BF"/>
<path d="M139.238 170.032H103.814V187.54H139.238V170.032Z" fill="#FFA6BF"/>
<path d="M139.238 197.386H103.814V214.895H139.238V197.386Z" fill="#FFA6BF"/>
<path d="M120.866 181.806C122.346 181.806 123.546 180.606 123.546 179.126C123.546 177.646 122.346 176.447 120.866 176.447C119.386 176.447 118.187 177.646 118.187 179.126C118.187 180.606 119.386 181.806 120.866 181.806Z" fill="#FF4D80"/>
<path d="M120.866 208.815C122.346 208.815 123.546 207.615 123.546 206.135C123.546 204.655 122.346 203.456 120.866 203.456C119.386 203.456 118.187 204.655 118.187 206.135C118.187 207.615 119.386 208.815 120.866 208.815Z" fill="#FF4D80"/>
<path d="M264.57 176.447C264.57 176.447 254.643 110.603 277.765 99.3065C300.887 88.0096 338.228 98.4438 321.217 179.877L320.375 188.931C319.819 194.764 317.108 200.181 312.773 204.122C308.437 208.064 302.788 210.247 296.928 210.246H249.974C241.357 210.246 238.728 198.452 246.574 194.899C249.27 193.695 252.087 192.783 254.978 192.179C257.368 191.664 259.532 190.404 261.159 188.58C262.786 186.755 263.792 184.462 264.032 182.029L264.57 176.447Z" fill="#FFD200"/>
<path d="M249.061 167.646L227.045 190.159C222.622 194.682 219.679 200.442 218.606 206.676C217.533 212.911 218.38 219.324 221.037 225.065L233.45 251.831L239.834 250.267L233.694 226.232C232.478 221.473 232.841 216.448 234.726 211.913C236.611 207.377 239.918 203.576 244.148 201.081L269.33 186.231L249.061 167.646Z" fill="#F4A28C"/>
<path d="M249.061 167.646L300.745 170.691C300.745 170.691 300.663 189.022 294.502 193.164C291.092 195.468 278.425 200.025 267.818 203.628C263.646 205.04 260.204 208.046 258.242 211.989C256.281 215.932 255.962 220.491 257.353 224.669L265.93 250.267L258.693 252.186L243.072 221.533C240.844 217.158 240.166 212.157 241.148 207.346C242.131 202.536 244.717 198.202 248.482 195.051L264.073 182.009L249.061 167.646Z" fill="#F4A28C"/>
<path d="M136.081 224.273H105.865V248.045H136.081V224.273Z" fill="#FFA6BF"/>
<path d="M280.15 244.117H289.133L303.607 260.255H267.036L280.15 244.117Z" fill="#FFD200"/>
<path opacity="0.33" d="M280.15 244.117H289.133L303.607 260.255H267.036L280.15 244.117Z" fill="white"/>
<path d="M305.515 164.926C305.515 164.926 312.742 182.912 296.461 193.184C280.181 203.456 261.423 200.563 259.404 212.621C259.404 212.621 216.916 195.66 216.774 195.478C216.632 195.295 239.489 164.804 258.521 162.135L307.149 164.926" fill="#24285B"/>
<path d="M264.326 71.0184C264.326 71.0184 263.656 71.3331 262.489 71.9116C254.054 76.1036 215.109 92.4552 216.885 107.873C218.915 125.433 267.513 116.267 267.513 116.267L276.171 86.1622C276.171 86.1622 244.128 98.5452 243.194 96.3122L267.554 76.4893" fill="#FF4D80"/>
<path opacity="0.46" d="M264.326 71.0184C264.326 71.0184 263.656 71.3331 262.489 71.9116C254.054 76.1036 215.109 92.4552 216.885 107.873C218.915 125.433 267.513 116.267 267.513 116.267L276.171 86.1622C276.171 86.1622 244.128 98.5452 243.194 96.3122L267.554 76.4893" fill="white"/>
<path d="M269.28 67.74C269.847 68.0214 270.34 68.4315 270.721 68.9377C271.083 69.4421 271.322 70.0242 271.419 70.6376C271.516 71.2509 271.468 71.8784 271.279 72.4699C270.699 73.8167 269.717 74.9513 268.468 75.7179C268.247 75.9089 267.992 76.0569 267.716 76.1544C267.47 76.2191 267.213 76.2299 266.963 76.1861C266.712 76.1423 266.474 76.0449 266.265 75.9006C265.849 75.6247 265.482 75.2817 265.179 74.8856C264.711 74.2353 264.4 73.4855 264.269 72.695C264.139 71.9044 264.193 71.0944 264.428 70.3283C264.834 68.958 265.971 67.4254 267.473 67.3949C268.094 67.3657 268.713 67.484 269.28 67.74V67.74Z" fill="#F4A28C"/>
<path d="M293.335 83.5233C291.833 81.7267 288.717 77.0171 288.646 68.9276L282.17 70.0847C282.17 70.0847 281.155 82.2647 278.333 85.2183L278.394 85.2792L293.335 83.5233Z" fill="#F4A28C"/>
<path opacity="0.09" d="M293.335 83.5233C291.833 81.7267 288.717 77.0171 288.646 68.9276L282.17 70.0847C282.17 70.0847 281.155 82.2647 278.333 85.2183L278.394 85.2792L293.335 83.5233Z" fill="black"/>
<path d="M277.268 60.4929C277.268 60.4929 277.491 75.0581 285.144 75.5656C292.797 76.0731 290.097 59.62 290.097 59.62C290.097 59.62 289.031 50.9519 284.515 50.3835C279.998 49.8151 275.136 50.1805 277.268 60.4929Z" fill="#F4A28C"/>
<path d="M277.552 63.8525C277.552 63.8525 273.492 63.0913 273.969 65.0807C274.446 67.0701 274.05 69.8106 278.414 68.1257L277.552 63.8525Z" fill="#F4A28C"/>
<path d="M289.478 61.7008C289.478 61.7008 293.954 60.1174 293.924 62.1474C293.893 64.1774 294.086 66.8468 289.478 66.045V61.7008Z" fill="#F4A28C"/>
<path d="M277.014 63.4161C277.147 63.5239 277.305 63.5962 277.474 63.6264C277.642 63.6566 277.816 63.6436 277.978 63.5886C278.426 63.3814 278.786 63.0217 278.993 62.5736C280.126 60.5752 280.591 58.2676 280.323 55.9863C280.943 57.5435 281.821 58.9848 282.921 60.2493C284.021 61.5167 285.573 62.3036 287.245 62.4417C292.218 62.5736 291.488 57.0115 290.869 53.6823C290.473 51.5 289.783 49.0234 287.824 47.6836C287.025 47.1636 286.07 46.9408 285.124 47.0543C283.916 47.0543 282.749 46.6991 281.531 46.76C280.133 46.7949 278.785 47.2869 277.694 48.1606C276.839 48.9594 276.176 49.9415 275.755 51.0331C274.368 54.538 274.423 58.4492 275.907 61.9139C276.142 62.5006 276.523 63.0176 277.014 63.4161V63.4161Z" fill="#24285B"/>
<path d="M310.803 133.796C307.758 144.322 304.277 154.725 301.384 162.785C283.906 163.292 259.14 168.123 258.632 162.368C258.348 159.252 262.641 159.537 261.403 155.263C260.682 152.716 257.922 140.566 256.704 137.704C250.106 122.093 253.76 105.407 261.281 95.3886C273.776 78.7324 297.192 77.352 313.046 86.2536C320.811 90.5572 316.873 112.471 310.803 133.796Z" fill="#FF4D80"/>
<path d="M279.531 82.6199C278.77 83.1274 269.198 105.244 274.811 133.898C274.811 133.898 283.023 94.7289 291.295 80.4884C291.305 80.4884 283.662 80.6305 279.531 82.6199Z" fill="white"/>
<path opacity="0.08" d="M313.31 139.724L307.636 162.247L301.384 162.785L258.652 166.439C258.368 163.333 262.641 159.537 261.403 155.223C276.801 152.604 295.304 148.554 288.422 128.254C280.85 105.924 292.482 90.4456 292.482 90.4456L310.823 133.796L313.31 139.724Z" fill="black"/>
<path d="M291.812 93.115C292.02 91.4699 292.572 89.8872 293.434 88.4707C294.296 87.0543 295.448 85.836 296.813 84.8958C298.179 83.9556 299.728 83.3147 301.359 83.0152C302.99 82.7157 304.666 82.7643 306.276 83.1578C315.33 85.4111 326.698 92.5263 328.393 113.872C331.286 150.097 321.024 167.2 321.024 167.2H264.326V160.003L303.718 155.192C303.718 155.192 288.696 118.033 291.812 93.115Z" fill="#FF4D80"/>
<path opacity="0.46" d="M291.812 93.115C292.02 91.4699 292.572 89.8872 293.434 88.4707C294.296 87.0543 295.448 85.836 296.813 84.8958C298.179 83.9556 299.728 83.3147 301.359 83.0152C302.99 82.7157 304.666 82.7643 306.276 83.1578C315.33 85.4111 326.698 92.5263 328.393 113.872C331.286 150.097 321.024 167.2 321.024 167.2H264.326V160.003L303.718 155.192C303.718 155.192 288.696 118.033 291.812 93.115Z" fill="white"/>
<path d="M276.831 82.4778C276.831 82.4778 272.284 83.3101 270.629 80.8538C268.975 78.3975 267.026 65.5476 266.833 64.2586C266.641 62.9695 270.081 58.7065 271.249 59.5287C272.416 60.3508 274.659 64.898 273.745 65.7912C272.776 66.5956 271.733 67.3059 270.629 67.9126C270.629 67.9126 271.32 75.5048 272.832 76.601C274.344 77.6972 276.821 75.8499 277.653 77.2607C278.486 78.6716 279.125 82.285 276.831 82.4778Z" fill="#FFD200"/>
<path d="M273.979 80.397C273.857 87.837 275.126 95.1856 276.151 102.514C276.933 108.117 277.937 115.486 275.481 120.784C274.466 122.814 271.837 124.773 270.132 123.25C268.843 122.083 269.574 119.647 271.147 118.997C271.984 118.742 272.879 118.749 273.712 119.017C274.545 119.286 275.276 119.803 275.806 120.5C276.83 121.919 277.492 123.567 277.734 125.301C278.579 128.866 278.673 132.568 278.008 136.171C277.314 139.798 275.212 143.002 272.162 145.083C271.257 145.72 270.173 146.054 269.066 146.037C268.516 146.013 267.988 145.812 267.56 145.465C267.133 145.118 266.828 144.642 266.691 144.109C266.608 143.471 266.76 142.826 267.118 142.292C268.64 139.775 272.7 139.734 274.75 141.835C276.801 143.936 276.953 147.407 275.704 150.077C274.324 152.685 272.206 154.828 269.614 156.238C265.027 159.009 256.521 162.49 251.06 161.161C248.614 160.572 246.594 158.877 244.696 157.212C243.062 155.781 241.448 154.319 239.855 152.848C238.261 151.376 236.546 149.803 234.78 148.351C228.715 143.507 221.416 140.455 213.708 139.541" stroke="#24285B" stroke-width="1.015" stroke-miterlimit="10"/>
<path d="M216.703 148.899H189.267L191.886 135.887H214.074L216.703 148.899Z" fill="#FFD200"/>
<path d="M198.432 132.03H194.575V135.887H198.432V132.03Z" fill="#FFD200"/>
<path d="M211.384 132.03H207.527V135.887H211.384V132.03Z" fill="#FFD200"/>
<path d="M264.133 161.049C264.133 161.049 242.818 154.868 245.356 166.926H264.133V161.049Z" fill="#F4A28C"/>
<path d="M230.963 31.2812H208.319C198.823 31.2812 191.125 38.9793 191.125 48.4753V48.4854C191.125 57.9815 198.823 65.6795 208.319 65.6795H230.963C240.459 65.6795 248.157 57.9815 248.157 48.4854V48.4753C248.157 38.9793 240.459 31.2812 230.963 31.2812Z" fill="#FFC4D8"/>
<path d="M230.06 64.0555C230.06 64.0555 235.409 71.4549 246.209 69.2727C246.209 69.2727 236.647 69.5467 233.947 61.1526L230.06 64.0555Z" fill="#FFC4D8"/>
<path opacity="0.08" d="M208.268 51.8552C210.135 51.8552 211.648 50.342 211.648 48.4753C211.648 46.6086 210.135 45.0953 208.268 45.0953C206.401 45.0953 204.888 46.6086 204.888 48.4753C204.888 50.342 206.401 51.8552 208.268 51.8552Z" fill="#FF064E"/>
<path opacity="0.08" d="M219.636 51.8552C221.503 51.8552 223.016 50.342 223.016 48.4753C223.016 46.6086 221.503 45.0953 219.636 45.0953C217.769 45.0953 216.256 46.6086 216.256 48.4753C216.256 50.342 217.769 51.8552 219.636 51.8552Z" fill="#FF064E"/>
<path opacity="0.08" d="M231.014 51.8552C232.881 51.8552 234.394 50.342 234.394 48.4753C234.394 46.6086 232.881 45.0953 231.014 45.0953C229.147 45.0953 227.634 46.6086 227.634 48.4753C227.634 50.342 229.147 51.8552 231.014 51.8552Z" fill="#FF064E"/>
</svg>
