<svg width="349" height="311" viewBox="0 0 349 311" fill="none" xmlns="http://www.w3.org/2000/svg">
<path opacity="0.18" d="M336.984 97.257C339.351 104.095 339.637 111.228 337.824 118.155C336.011 125.083 332.143 131.637 326.49 137.358C318.05 145.74 306.017 152.009 298.524 160.836C282.328 179.894 291.022 205.919 276.167 225.551C263.75 241.975 238.025 250.043 214.139 256.968C195.383 262.402 176.439 267.869 156.557 270.059C136.675 272.249 115.293 270.86 98.0649 263.312C83.8569 257.105 73.419 247.265 63.7782 237.438C40.0795 213.261 18.6596 186.936 11.3821 157.688C4.10464 128.441 13.1828 95.6352 43.0242 75.4002C57.5511 65.5461 76.5795 58.7509 86.8298 46.3581C97.5867 33.3562 97.7367 15.2152 114.458 6.15489C120.629 2.80862 128.3 1.25523 135.915 0.516179C154.249 -1.20576 172.856 1.40608 189.005 7.96831C205.389 14.6677 218.838 25.3156 236.684 29.5993C259.783 35.1491 289.427 30.8858 304.779 47.3093C317.112 60.5165 331.507 81.8738 336.984 97.257Z" fill="#FF4D80"/>
<path opacity="0.45" d="M177.449 267.077C253.392 267.077 314.955 261.784 314.955 255.255C314.955 248.726 253.392 243.433 177.449 243.433C101.507 243.433 39.9431 248.726 39.9431 255.255C39.9431 261.784 101.507 267.077 177.449 267.077Z" fill="#E6E6E6"/>
<path d="M157.922 191.181C158.694 191.408 159.522 191.336 160.243 190.979C160.964 190.695 161.596 190.224 162.076 189.613C162.553 188.994 162.77 188.211 162.678 187.433C162.667 187.259 162.618 187.091 162.533 186.939C162.448 186.787 162.331 186.657 162.189 186.557C161.962 186.426 161.666 186.417 161.447 186.277C161.228 186.085 161.048 185.854 160.915 185.594C160.707 185.328 160.442 185.111 160.14 184.96C159.839 184.808 159.507 184.726 159.17 184.718C158.485 184.71 157.808 184.86 157.19 185.156C156.742 185.306 156.334 185.554 155.993 185.881C155.652 186.208 155.387 186.606 155.218 187.048C155.133 187.549 155.196 188.063 155.397 188.53C155.598 188.996 155.93 189.394 156.352 189.675C157.223 190.22 158.192 190.589 159.205 190.76" fill="#24285B"/>
<path d="M140.551 184.832C140.851 184.508 141.227 184.265 141.645 184.126C142.062 183.987 142.509 183.955 142.942 184.035C143.224 184.119 143.519 184.155 143.814 184.14C144.046 184.076 144.269 183.982 144.477 183.86C145.611 183.335 146.938 183.808 148.098 184.289C148.481 184.481 148.901 184.589 149.328 184.604C149.689 184.574 150.043 184.485 150.375 184.342C151.17 184.064 151.987 183.858 152.818 183.729C153.017 183.676 153.225 183.663 153.428 183.692C153.632 183.72 153.828 183.789 154.005 183.895C154.167 184.048 154.319 184.212 154.459 184.385C154.792 184.66 155.199 184.827 155.628 184.867C156.517 184.904 157.375 185.209 158.088 185.743C158.315 185.97 158.481 186.251 158.699 186.47C158.917 186.689 159.135 186.829 159.327 187.039C159.555 187.387 159.711 187.776 159.788 188.185C159.864 188.594 159.859 189.014 159.772 189.421C159.769 189.66 159.706 189.895 159.589 190.104C159.339 190.371 158.994 190.529 158.629 190.542L153.848 191.312C150.672 191.82 147.496 192.337 144.294 192.722C142.675 192.98 141.031 193.033 139.399 192.88C137.654 192.652 137.183 191.908 137.035 190.253C136.799 187.704 139.085 186.426 140.551 184.832Z" fill="#E6E6E6"/>
<path d="M164.187 187.459H136.031V199.535H164.187V187.459Z" fill="#FFD200"/>
<path d="M112.552 186.005L114.838 180.2L119.89 167.353L125.021 154.279C126.347 150.925 127.69 147.72 129.322 144.498C129.805 143.417 130.44 142.412 131.207 141.512C131.592 141.062 132.068 140.7 132.604 140.449C133.139 140.199 133.722 140.065 134.313 140.058C134.464 140.049 134.614 140.089 134.74 140.172C134.837 140.26 134.909 140.371 134.95 140.496C135.453 141.885 135.493 143.4 135.063 144.813C134.752 145.878 134.367 146.92 133.911 147.931C133.601 148.726 133.415 149.565 133.362 150.418C133.362 150.523 133.318 150.715 133.301 150.838L132.856 153.824L131.111 165.392L129.13 178.737C128.717 181.522 128.304 184.301 127.891 187.074C127.891 187.196 128.764 182.599 127.821 187.59C126.879 192.582 118.163 201.391 112.552 186.005Z" fill="#F4A28C"/>
<path d="M161.36 218.406C161.36 218.406 169.012 225.639 159.1 225.35C149.189 225.061 152.836 217.32 161.36 218.406Z" fill="#FF4D80"/>
<path d="M104.238 137.037C104.238 137.037 119.07 148.167 112.09 152.458C105.11 156.749 99.7093 136.004 99.7093 136.004L104.238 137.037Z" fill="#24285B"/>
<path d="M104.168 127.553C104.168 127.553 105.285 132.265 104.944 135.566C104.912 135.885 104.816 136.195 104.664 136.477C104.511 136.759 104.304 137.008 104.055 137.209C103.806 137.41 103.519 137.56 103.212 137.649C102.905 137.738 102.583 137.765 102.266 137.729C101.236 137.679 100.243 137.333 99.4046 136.732C98.5661 136.132 97.9176 135.301 97.5368 134.34L95.4951 130.356C95.1746 129.515 95.1199 128.596 95.3385 127.723C95.5571 126.851 96.0383 126.067 96.7166 125.478C99.1247 123.14 103.636 124.637 104.168 127.553Z" fill="#F4A28C"/>
<path d="M95.8965 132.825L97.3797 148.64L106.009 147.195L101.463 136.267L95.8965 132.825Z" fill="#F4A28C"/>
<path d="M99.6919 132.405C99.6919 132.405 99.3865 130.566 98.0254 130.907C96.6643 131.249 97.0918 133.92 99.0026 133.893L99.6919 132.405Z" fill="#F4A28C"/>
<path d="M104.7 130.557L106.305 132.212C106.396 132.306 106.462 132.422 106.496 132.548C106.531 132.675 106.533 132.808 106.502 132.935C106.472 133.063 106.41 133.181 106.322 133.278C106.234 133.375 106.123 133.448 106 133.491L104.255 134.104L104.7 130.557Z" fill="#F4A28C"/>
<path d="M132.829 205.463C132.829 205.463 162.346 197.95 166.194 211.041C170.042 224.133 124.925 222.846 124.925 222.846L114.655 214.693L132.829 205.463Z" fill="#24285B"/>
<path d="M102.397 146.407C102.397 146.407 119.576 148.158 131.547 161.898C138.658 170.05 135.97 176.846 132.611 181.023C131.202 182.811 130.259 184.924 129.868 187.17C129.476 189.416 129.648 191.724 130.369 193.887L133.929 205.017C133.929 205.017 114.926 217.276 102.92 216.015C90.9145 214.754 53.1352 148.298 102.397 146.407Z" fill="#FF4D80"/>
<path opacity="0.08" d="M78.9962 160.365C78.9962 160.365 76.8673 166.907 78.0277 173.229C79.1881 179.552 85.1298 221.541 124.523 210.201L133.929 204.947L123.947 196.514L104.848 176.461L96.4898 160.357L78.9962 160.365Z" fill="black"/>
<path d="M92.485 188.738C84.0392 163.062 46.3385 167.266 43.1102 194.114C39.786 221.83 43.5552 248.941 88.0091 253.906C158.682 261.787 169.832 240.867 159.859 223.984C149.887 207.101 100.268 215.971 92.8602 189.937C92.7467 189.508 92.6246 189.123 92.485 188.738Z" fill="#FFA6BF"/>
<path d="M150.794 203.204C150.794 203.204 160.653 205.603 161.36 199.307L150.794 198.16V203.204Z" fill="#F4A28C"/>
<path d="M90.8796 161.083C90.7749 155.138 97.4059 151.311 102.344 154.586C105.73 156.828 109.063 161.442 111.069 170.515C114.996 188.238 124.768 195.909 150.794 198.16V203.204C150.794 203.204 91.9354 218.222 90.8796 161.083Z" fill="#F4A28C"/>
<path d="M103.191 128.701C103.759 128.473 104.257 128.099 104.636 127.617C105.015 127.135 105.261 126.561 105.349 125.954C105.438 125.346 105.365 124.726 105.14 124.155C104.914 123.585 104.543 123.083 104.063 122.702C103.53 122.287 102.943 121.949 102.318 121.695C98.2086 119.944 88.358 121.178 89.0124 130.557C89.6668 139.936 74.0665 161.259 88.1399 167.047C102.213 172.835 113.948 165.19 113.948 158.29C113.948 151.39 100.582 149.77 99.7093 143.762C99.3515 141.31 99.0113 138.718 98.7233 136.503C98.5262 134.892 98.8551 133.261 99.6606 131.854C100.466 130.447 101.705 129.341 103.191 128.701V128.701Z" fill="#24285B"/>
<path opacity="0.45" d="M68.9275 217.916C63.9542 213.362 56.1628 218.353 58.3092 224.755C61.3542 233.809 68.3516 242.689 83.7251 245.316C118.267 251.218 114.9 238.389 112.666 232.793C110.807 228.222 87.9654 235.35 68.9275 217.916Z" fill="white"/>
<path d="M135.63 132.195C135.63 132.195 134.574 127.956 138.047 126.31L138.501 127.553C138.501 127.553 136.599 127.623 136.302 132.3L135.63 132.195Z" fill="#FF4D80"/>
<path opacity="0.08" d="M135.63 132.195C135.63 132.195 134.574 127.956 138.047 126.31L138.501 127.553C138.501 127.553 136.599 127.623 136.302 132.3L135.63 132.195Z" fill="black"/>
<path d="M132.821 143.789C133.658 143.612 134.529 143.72 135.299 144.095L135.569 144.227C135.951 144.416 136.377 144.498 136.803 144.466C137.228 144.434 137.636 144.288 137.986 144.043C139.293 143.185 140.399 142.052 141.228 140.723C142.056 139.394 142.587 137.9 142.785 136.345C143.203 131.809 140.49 130.89 138.099 131.459C136.94 131.734 135.719 131.536 134.705 130.907C134.177 130.522 133.564 130.271 132.917 130.178C132.271 130.085 131.612 130.152 130.997 130.373C128.58 131.441 127.289 139.016 130.875 143.141C131.111 143.414 131.417 143.619 131.759 143.733C132.102 143.847 132.468 143.866 132.821 143.789Z" fill="#FFD200"/>
<path opacity="0.43" d="M141.345 134.62C141.408 136.513 140.929 138.385 139.966 140.014C139.901 140.118 139.804 140.199 139.69 140.243C139.575 140.287 139.45 140.292 139.332 140.259C139.214 140.225 139.11 140.154 139.036 140.057C138.961 139.959 138.921 139.84 138.919 139.717V134.664C138.917 134.47 138.962 134.279 139.048 134.106C139.135 133.933 139.263 133.784 139.419 133.67C139.576 133.557 139.757 133.483 139.948 133.455C140.139 133.427 140.334 133.445 140.516 133.508V133.508C140.753 133.583 140.96 133.731 141.109 133.93C141.258 134.13 141.34 134.371 141.345 134.62Z" fill="white"/>
<path d="M135.979 128.324C135.979 128.324 136.093 123.849 131.241 124.821C131.241 124.778 131.294 129.314 135.979 128.324Z" fill="#FF4D80"/>
<path opacity="0.46" d="M135.979 128.324C135.979 128.324 136.093 123.849 131.241 124.821C131.241 124.778 131.294 129.314 135.979 128.324Z" fill="white"/>
<path d="M228.394 191.995C224.355 196.794 219.155 200.822 213.091 202.372C212.245 202.467 211.463 202.869 210.892 203.502C210.693 203.924 210.595 204.387 210.607 204.854C210.619 205.321 210.741 205.779 210.962 206.19C212.489 209.905 215.203 213.006 218.678 215.003C222.153 217.001 226.191 217.782 230.157 217.224C233.402 216.6 236.487 215.319 239.222 213.458C241.827 211.907 244.051 209.788 245.731 207.258C247.685 204.062 248.235 200.209 248.444 196.47C248.636 193.094 248.593 189.708 248.314 186.338C247.999 182.625 245.312 173.527 239.658 175.331C237.329 176.066 235.784 181.023 234.624 182.993C232.807 186.167 230.723 189.178 228.394 191.995Z" fill="#FF4D80"/>
<path opacity="0.08" d="M228.394 191.995C224.355 196.794 219.155 200.822 213.091 202.372C212.245 202.467 211.463 202.869 210.892 203.502C210.693 203.924 210.595 204.387 210.607 204.854C210.619 205.321 210.741 205.779 210.962 206.19C212.489 209.905 215.203 213.006 218.678 215.003C222.153 217.001 226.191 217.782 230.157 217.224C233.402 216.6 236.487 215.319 239.222 213.458C241.827 211.907 244.051 209.788 245.731 207.258C247.685 204.062 248.235 200.209 248.444 196.47C248.636 193.094 248.593 189.708 248.314 186.338C247.999 182.625 245.312 173.527 239.658 175.331C237.329 176.066 235.784 181.023 234.624 182.993C232.807 186.167 230.723 189.178 228.394 191.995Z" fill="black"/>
<path d="M221.676 197.757C222.45 197.985 223.281 197.913 224.006 197.556C224.726 197.272 225.359 196.8 225.838 196.19C226.076 195.884 226.251 195.534 226.353 195.159C226.455 194.785 226.481 194.394 226.431 194.009C226.419 193.836 226.369 193.668 226.285 193.516C226.2 193.365 226.083 193.234 225.943 193.134C225.716 193.002 225.428 192.993 225.201 192.853C224.984 192.662 224.807 192.43 224.677 192.17C224.47 191.903 224.205 191.686 223.904 191.535C223.602 191.383 223.27 191.301 222.932 191.295C222.25 191.286 221.575 191.436 220.961 191.732C220.515 191.883 220.107 192.13 219.768 192.457C219.428 192.784 219.165 193.183 218.998 193.624C218.914 194.126 218.978 194.641 219.181 195.108C219.383 195.574 219.717 195.971 220.14 196.251C221.007 196.799 221.974 197.168 222.985 197.337" fill="#24285B"/>
<path d="M204.331 191.408C204.633 191.088 205.009 190.847 205.426 190.708C205.843 190.569 206.288 190.536 206.721 190.612C207.004 190.695 207.299 190.73 207.594 190.717C207.822 190.652 208.041 190.561 208.248 190.445C209.391 189.92 210.717 190.393 211.878 190.866C212.261 191.059 212.68 191.169 213.108 191.19C213.466 191.155 213.817 191.063 214.146 190.918C214.94 190.639 215.758 190.436 216.589 190.314C216.788 190.259 216.995 190.245 217.199 190.272C217.402 190.299 217.599 190.367 217.776 190.472C217.941 190.622 218.092 190.786 218.23 190.962C218.565 191.238 218.976 191.406 219.408 191.444C220.294 191.483 221.148 191.788 221.859 192.319C222.086 192.547 222.252 192.827 222.47 193.055C222.688 193.282 222.915 193.405 223.098 193.615C223.326 193.964 223.483 194.355 223.56 194.766C223.636 195.176 223.63 195.598 223.543 196.006C223.545 196.242 223.484 196.474 223.369 196.68C223.118 196.946 222.774 197.104 222.409 197.118L217.628 197.889C214.443 198.405 211.267 198.913 208.074 199.307C206.452 199.562 204.805 199.612 203.17 199.456C201.425 199.228 200.954 198.484 200.815 196.829C200.588 194.289 202.865 193.011 204.331 191.408Z" fill="#E6E6E6"/>
<path d="M227.967 194.044H199.811V206.12H227.967V194.044Z" fill="#FFD200"/>
<path d="M198.686 160.225H190.379C190.239 160.225 190.099 160.254 189.97 160.309C189.84 160.365 189.723 160.446 189.626 160.549C189.529 160.651 189.454 160.772 189.405 160.905C189.356 161.038 189.334 161.179 189.341 161.32L190.022 175.086C190.051 175.56 190.259 176.006 190.605 176.332C190.95 176.657 191.406 176.838 191.88 176.837H197.316C197.797 176.837 198.259 176.651 198.606 176.316C198.952 175.981 199.156 175.524 199.174 175.042L199.724 161.285C199.725 161.147 199.699 161.01 199.648 160.882C199.596 160.754 199.52 160.638 199.423 160.539C199.327 160.441 199.212 160.362 199.086 160.309C198.959 160.255 198.823 160.226 198.686 160.225V160.225Z" fill="#FF4D80"/>
<path d="M196.313 173.168L195.702 173.124L196.784 157.414C196.787 157.372 196.799 157.331 196.818 157.293C196.838 157.256 196.864 157.222 196.897 157.195C196.968 157.145 197.055 157.123 197.141 157.134L202.176 158.01L202.08 158.614L197.368 157.817L196.313 173.168Z" fill="#24285B"/>
<path opacity="0.44" d="M198.398 165.252H190.737L191.078 174.622C191.089 174.923 191.216 175.208 191.432 175.417C191.649 175.626 191.938 175.743 192.238 175.742H196.836C197.135 175.743 197.422 175.627 197.639 175.42C197.855 175.213 197.983 174.93 197.996 174.63L198.398 165.252Z" fill="white"/>
<path d="M247.31 126.459C247.31 126.459 247.179 131.993 248.331 135.601C248.566 136.295 249.064 136.869 249.717 137.196C250.371 137.524 251.127 137.58 251.821 137.352C252.962 137.054 253.993 136.431 254.789 135.557C255.584 134.684 256.111 133.598 256.306 132.431L257.649 127.501C257.815 126.485 257.662 125.442 257.212 124.516C256.762 123.591 256.037 122.828 255.136 122.334C251.908 120.329 247.223 123.061 247.31 126.459Z" fill="#F4A28C"/>
<path d="M257.422 128.412L261.392 146.127L251.507 147.624L252.589 134.13L257.422 128.412Z" fill="#F4A28C"/>
<path d="M248.662 126.581C250.368 126.54 252.063 126.302 253.714 125.872C253.269 126.654 253.063 127.549 253.12 128.447C253.178 129.345 253.496 130.207 254.037 130.925C254.544 131.634 255.281 132.144 256.122 132.366C256.963 132.589 257.855 132.509 258.644 132.142L258.112 125.04C258.068 124.022 257.752 123.035 257.196 122.183C256.64 121.33 255.865 120.645 254.953 120.198C254.16 119.813 253.344 119.476 252.51 119.191C250.425 118.499 247.528 120.066 245.609 118.788C245.416 118.663 245.194 118.591 244.965 118.578C244.736 118.565 244.507 118.611 244.301 118.712C244.095 118.813 243.918 118.966 243.788 119.156C243.658 119.345 243.579 119.566 243.558 119.795C243.375 121.975 243.977 125.355 246.961 126.354C247.512 126.521 248.087 126.598 248.662 126.581V126.581Z" fill="#24285B"/>
<path d="M253.461 130.837C253.461 130.837 253.365 128.701 254.971 128.771C256.576 128.841 256.716 131.906 254.578 132.335L253.461 130.837Z" fill="#F4A28C"/>
<path d="M247.406 129.962L246.045 132.16C245.961 132.286 245.912 132.432 245.901 132.583C245.89 132.734 245.919 132.885 245.984 133.022C246.049 133.159 246.148 133.277 246.272 133.363C246.396 133.45 246.54 133.503 246.691 133.517L248.819 133.78L247.406 129.962Z" fill="#F4A28C"/>
<path opacity="0.31" d="M252.231 137.072C253.449 136.683 254.526 135.943 255.328 134.944C255.328 134.944 255.398 138.263 251.978 141.766L252.231 137.072Z" fill="#CE8172"/>
<path d="M266.191 216.155L239.475 214.404C239.475 214.404 239.091 211.777 238.507 207.504C238.088 204.43 237.556 200.498 236.988 196.207C236.055 189.088 235.025 180.83 234.205 173.247C232.19 154.708 251.507 147.607 251.507 147.607L261.392 146.109C306.309 153.115 266.191 216.155 266.191 216.155Z" fill="#FF4D80"/>
<path opacity="0.08" d="M263.914 189.088C251.463 204.299 247.677 213.528 247.677 213.528L238.507 207.521C238.088 204.447 237.556 200.516 236.988 196.225L244.3 185.393L265.676 161.311L266.348 161.469C266.348 161.469 276.364 173.877 263.914 189.088Z" fill="black"/>
<path d="M265.467 157.187C264.85 154.983 263.432 153.092 261.494 151.886C259.556 150.68 257.238 150.247 254.997 150.672C249.919 151.652 243.864 155.05 241.735 165.409C240.061 173.778 237.041 181.817 232.792 189.21C232.371 189.929 231.798 190.546 231.113 191.018C230.428 191.489 229.648 191.803 228.829 191.938C228.009 192.073 227.17 192.024 226.371 191.797C225.572 191.569 224.833 191.167 224.206 190.62L202.952 172.231L198.188 177.844L223.037 203.896C224.676 205.616 226.858 206.713 229.212 207.002C231.566 207.291 233.946 206.754 235.95 205.481C248.418 197.556 271.792 179.368 265.467 157.187Z" fill="#FF4D80"/>
<path opacity="0.46" d="M265.467 157.187C264.85 154.983 263.432 153.092 261.494 151.886C259.556 150.68 257.238 150.247 254.997 150.672C249.919 151.652 243.864 155.05 241.735 165.409C240.061 173.778 237.041 181.817 232.792 189.21C232.371 189.929 231.798 190.546 231.113 191.018C230.428 191.489 229.648 191.803 228.829 191.938C228.009 192.073 227.17 192.024 226.371 191.797C225.572 191.569 224.833 191.167 224.206 190.62L202.952 172.231L198.188 177.844L223.037 203.896C224.676 205.616 226.858 206.713 229.212 207.002C231.566 207.291 233.946 206.754 235.95 205.481C248.418 197.556 271.792 179.368 265.467 157.187Z" fill="#F5668F"/>
<path d="M202.943 172.213C202.943 172.213 196.426 165.313 193.041 170.05C189.655 174.788 198.18 177.827 198.18 177.827L202.943 172.213Z" fill="#F4A28C"/>
<path d="M204.985 218.406C204.985 218.406 197.333 225.639 207.254 225.35C217.174 225.061 213.518 217.32 204.985 218.406Z" fill="#FF4D80"/>
<path d="M236.823 207.145C236.823 207.145 204.008 197.95 200.178 211.041C196.347 224.133 241.447 222.846 241.447 222.846L251.708 214.693L236.823 207.145Z" fill="#24285B"/>
<path d="M262.396 188.738C270.841 163.062 308.551 167.266 311.77 194.114C315.095 221.83 311.325 248.941 266.872 253.906C196.199 261.787 185.048 240.867 195.021 223.984C204.994 207.101 254.613 215.971 262.029 189.937C262.143 189.508 262.265 189.123 262.396 188.738Z" fill="#FFA6BF"/>
<path opacity="0.45" d="M285.971 217.916C290.944 213.362 298.735 218.353 296.589 224.755C293.553 233.809 286.546 242.689 271.173 245.316C236.639 251.218 240.007 238.389 242.232 232.793C244.047 228.222 266.924 235.35 285.971 217.916Z" fill="white"/>
<path opacity="0.58" d="M66.755 244.379C66.755 244.379 58.2045 242.032 56.3461 234.046C56.3461 234.046 69.5906 231.366 69.9658 245.088L66.755 244.379Z" fill="#FF4D80"/>
<path opacity="0.73" d="M67.802 243.529C67.802 243.529 61.8254 234.046 67.0866 225.192C67.0866 225.192 77.1552 231.611 72.6793 243.582L67.802 243.529Z" fill="#FF4D80"/>
<path d="M69.3376 243.538C69.3376 243.538 72.496 233.529 82.015 231.629C82.015 231.629 83.76 238.126 75.8377 243.564L69.3376 243.538Z" fill="#FF4D80"/>
<path d="M63.1428 243.31L64.8704 255.211L75.7853 255.255L77.3995 243.372L63.1428 243.31Z" fill="#24285B"/>
</svg>
