<svg width="17" height="17" viewBox="0 0 17 17" fill="none" xmlns="http://www.w3.org/2000/svg">
<g clip-path="url(#clip0)">
<path d="M16.9833 4.99805C16.9435 4.09477 16.7974 3.47378 16.5882 2.93568C16.3723 2.3645 16.0402 1.85312 15.6051 1.42801C15.18 0.996288 14.6653 0.660819 14.1007 0.44833C13.5595 0.239083 12.9418 0.0930128 12.0385 0.0531872C11.1285 0.00998882 10.8396 0 8.5315 0C6.22343 0 5.93453 0.00998882 5.02789 0.0498144C4.12461 0.08964 3.50362 0.23584 2.96565 0.444957C2.39434 0.660819 1.88297 0.992915 1.45786 1.42801C1.02613 1.85312 0.690795 2.36787 0.478175 2.93243C0.268929 3.47378 0.122859 4.0914 0.0830334 4.99467C0.039835 5.90469 0.0298462 6.19359 0.0298462 8.50166C0.0298462 10.8097 0.039835 11.0986 0.0796605 12.0053C0.119486 12.9085 0.265686 13.5295 0.474932 14.0676C0.690795 14.6388 1.02613 15.1502 1.45786 15.5753C1.88297 16.007 2.39771 16.3425 2.96228 16.555C3.50362 16.7642 4.12124 16.9103 5.02464 16.9501C5.93116 16.9901 6.22019 16.9999 8.52825 16.9999C10.8363 16.9999 11.1252 16.9901 12.0319 16.9501C12.9351 16.9103 13.5561 16.7642 14.0941 16.555C15.2366 16.1133 16.1399 15.21 16.5816 14.0676C16.7907 13.5263 16.9369 12.9085 16.9767 12.0053C17.0165 11.0986 17.0265 10.8097 17.0265 8.50166C17.0265 6.19359 17.0232 5.90469 16.9833 4.99805ZM15.4524 11.9389C15.4159 12.7691 15.2764 13.2174 15.1602 13.5163C14.8745 14.2569 14.2867 14.8447 13.5461 15.1303C13.2473 15.2466 12.7957 15.386 11.9687 15.4225C11.072 15.4624 10.8031 15.4723 8.53487 15.4723C6.26663 15.4723 5.99434 15.4624 5.10092 15.4225C4.27068 15.386 3.82235 15.2466 3.52347 15.1303C3.15492 14.9941 2.81945 14.7783 2.54716 14.496C2.26488 14.2203 2.04901 13.8882 1.9128 13.5197C1.79657 13.2208 1.65712 12.7691 1.62066 11.9422C1.58071 11.0456 1.57085 10.7765 1.57085 8.50828C1.57085 6.24003 1.58071 5.96774 1.62066 5.07445C1.65712 4.24421 1.79657 3.79588 1.9128 3.497C2.04901 3.12832 2.26488 2.79298 2.55053 2.52056C2.82607 2.23828 3.15816 2.02241 3.52684 1.88633C3.82573 1.7701 4.27743 1.63064 5.10429 1.59406C6.00095 1.55424 6.27 1.54425 8.53811 1.54425C10.8097 1.54425 11.0786 1.55424 11.9721 1.59406C12.8023 1.63064 13.2506 1.7701 13.5495 1.88633C13.9181 2.02241 14.2535 2.23828 14.5258 2.52056C14.8081 2.79622 15.024 3.12832 15.1602 3.497C15.2764 3.79588 15.4159 4.24746 15.4524 5.07445C15.4923 5.97111 15.5023 6.24003 15.5023 8.50828C15.5023 10.7765 15.4923 11.0422 15.4524 11.9389Z" fill="white"/>
<path d="M8.53155 4.13464C6.12061 4.13464 4.16449 6.09064 4.16449 8.50171C4.16449 10.9128 6.12061 12.8688 8.53155 12.8688C10.9426 12.8688 12.8986 10.9128 12.8986 8.50171C12.8986 6.09064 10.9426 4.13464 8.53155 4.13464ZM8.53155 11.3345C6.96745 11.3345 5.69875 10.0659 5.69875 8.50171C5.69875 6.93748 6.96745 5.6689 8.53155 5.6689C10.0958 5.6689 11.3643 6.93748 11.3643 8.50171C11.3643 10.0659 10.0958 11.3345 8.53155 11.3345Z" fill="white"/>
<path d="M14.0909 3.96189C14.0909 4.5249 13.6344 4.98141 13.0713 4.98141C12.5083 4.98141 12.0518 4.5249 12.0518 3.96189C12.0518 3.39876 12.5083 2.94238 13.0713 2.94238C13.6344 2.94238 14.0909 3.39876 14.0909 3.96189Z" fill="white"/>
</g>
<defs>
<clipPath id="clip0">
<rect width="17" height="17" fill="white"/>
</clipPath>
</defs>
</svg>
