<svg width="88" height="24" viewBox="0 0 88 24" fill="none" xmlns="http://www.w3.org/2000/svg">
<path d="M36.9018 5.76C37.5546 5.76 38.1754 5.9584 38.7642 6.3552C39.353 6.7392 39.8266 7.264 40.185 7.9296C40.5434 8.5824 40.7226 9.2992 40.7226 10.08C40.7226 10.848 40.5434 11.5648 40.185 12.2304C39.8266 12.896 39.353 13.4272 38.7642 13.824C38.1754 14.208 37.5546 14.4 36.9018 14.4H33.561V18.0288C33.561 18.3744 33.4586 18.656 33.2538 18.8736C33.049 19.0912 32.7802 19.2 32.4474 19.2C32.1274 19.2 31.865 19.0912 31.6602 18.8736C31.4554 18.6432 31.353 18.3616 31.353 18.0288V6.9312C31.353 6.5984 31.4618 6.3232 31.6794 6.1056C31.9098 5.8752 32.1914 5.76 32.5242 5.76H36.9018ZM36.9018 12.2112C37.145 12.2112 37.3818 12.1088 37.6122 11.904C37.8554 11.6992 38.0474 11.4368 38.1882 11.1168C38.3418 10.784 38.4186 10.4384 38.4186 10.08C38.4186 9.7216 38.3418 9.3824 38.1882 9.0624C38.0474 8.7296 37.8554 8.4672 37.6122 8.2752C37.3818 8.0704 37.145 7.968 36.9018 7.968H33.561V12.2112H36.9018Z" fill="white"/>
<path d="M50.9496 8.736C51.2824 8.736 51.5576 8.8448 51.7752 9.0624C51.9928 9.28 52.1016 9.5616 52.1016 9.9072V18.0288C52.1016 18.3616 51.9928 18.6432 51.7752 18.8736C51.5576 19.0912 51.2824 19.2 50.9496 19.2C50.6168 19.2 50.3416 19.0912 50.124 18.8736C49.9192 18.656 49.8104 18.3808 49.7976 18.048C49.4776 18.4192 49.0424 18.7392 48.492 19.008C47.9544 19.264 47.3848 19.392 46.7832 19.392C45.9 19.392 45.1 19.168 44.3832 18.72C43.6664 18.2592 43.0968 17.6256 42.6744 16.8192C42.2648 16.0128 42.06 15.0976 42.06 14.0736C42.06 13.0496 42.2648 12.1344 42.6744 11.328C43.084 10.5088 43.6408 9.8752 44.3448 9.4272C45.0616 8.9664 45.8488 8.736 46.7064 8.736C47.3208 8.736 47.8968 8.8512 48.4344 9.0816C48.972 9.2992 49.4264 9.5808 49.7976 9.9264V9.9072C49.7976 9.5744 49.9064 9.2992 50.124 9.0816C50.3416 8.8512 50.6168 8.736 50.9496 8.736ZM47.0712 17.28C47.9032 17.28 48.5816 16.9792 49.1064 16.3776C49.6312 15.7632 49.8936 14.9952 49.8936 14.0736C49.8936 13.152 49.6312 12.384 49.1064 11.7696C48.5816 11.1552 47.9032 10.848 47.0712 10.848C46.252 10.848 45.58 11.1552 45.0552 11.7696C44.5304 12.384 44.268 13.152 44.268 14.0736C44.268 14.9952 44.524 15.7632 45.036 16.3776C45.5608 16.9792 46.2392 17.28 47.0712 17.28Z" fill="white"/>
<path d="M59.9361 8.736C60.3201 8.736 60.6401 8.8448 60.8961 9.0624C61.1649 9.28 61.2993 9.536 61.2993 9.8304C61.2993 10.2272 61.1969 10.528 60.9921 10.7328C60.7873 10.9248 60.5441 11.0208 60.2625 11.0208C60.0705 11.0208 59.8529 10.976 59.6097 10.8864C59.5713 10.8736 59.4817 10.848 59.3409 10.8096C59.2129 10.7712 59.0721 10.752 58.9185 10.752C58.5857 10.752 58.2657 10.8544 57.9585 11.0592C57.6513 11.264 57.3953 11.5776 57.1905 12C56.9985 12.4096 56.9025 12.9024 56.9025 13.4784V18.0288C56.9025 18.3616 56.7937 18.6432 56.5761 18.8736C56.3585 19.0912 56.0833 19.2 55.7505 19.2C55.4177 19.2 55.1425 19.0912 54.9249 18.8736C54.7073 18.6432 54.5985 18.3616 54.5985 18.0288V10.0992C54.5985 9.7664 54.7073 9.4912 54.9249 9.2736C55.1425 9.0432 55.4177 8.928 55.7505 8.928C56.0833 8.928 56.3585 9.0432 56.5761 9.2736C56.7937 9.4912 56.9025 9.7664 56.9025 10.0992V10.3488C57.1969 9.824 57.6193 9.4272 58.1697 9.1584C58.7201 8.8768 59.3089 8.736 59.9361 8.736Z" fill="white"/>
<path d="M72.3611 14.0736C72.3611 15.0976 72.1307 16.0192 71.6699 16.8384C71.2091 17.6448 70.5755 18.272 69.7691 18.72C68.9755 19.168 68.0987 19.392 67.1387 19.392C66.1659 19.392 65.2827 19.168 64.4891 18.72C63.6955 18.272 63.0683 17.6448 62.6075 16.8384C62.1467 16.0192 61.9163 15.0976 61.9163 14.0736C61.9163 13.0496 62.1467 12.1344 62.6075 11.328C63.0683 10.5088 63.6955 9.8752 64.4891 9.4272C65.2827 8.9664 66.1659 8.736 67.1387 8.736C68.0987 8.736 68.9755 8.9664 69.7691 9.4272C70.5755 9.8752 71.2091 10.5088 71.6699 11.328C72.1307 12.1344 72.3611 13.0496 72.3611 14.0736ZM70.0571 14.0736C70.0571 13.4464 69.9227 12.8896 69.6539 12.4032C69.3979 11.904 69.0459 11.52 68.5979 11.2512C68.1627 10.9824 67.6763 10.848 67.1387 10.848C66.6011 10.848 66.1083 10.9824 65.6603 11.2512C65.2251 11.52 64.8731 11.904 64.6043 12.4032C64.3483 12.8896 64.2203 13.4464 64.2203 14.0736C64.2203 14.7008 64.3483 15.2576 64.6043 15.744C64.8731 16.2304 65.2251 16.608 65.6603 16.8768C66.1083 17.1456 66.6011 17.28 67.1387 17.28C67.6763 17.28 68.1627 17.1456 68.5979 16.8768C69.0459 16.608 69.3979 16.2304 69.6539 15.744C69.9227 15.2576 70.0571 14.7008 70.0571 14.0736Z" fill="white"/>
<path d="M76.4556 18.0288C76.4556 18.3616 76.3468 18.6432 76.1292 18.8736C75.9116 19.0912 75.6364 19.2 75.3036 19.2C74.9708 19.2 74.6956 19.0912 74.478 18.8736C74.2604 18.6432 74.1516 18.3616 74.1516 18.0288V10.0992C74.1516 9.7664 74.2604 9.4912 74.478 9.2736C74.6956 9.0432 74.9708 8.928 75.3036 8.928C75.6364 8.928 75.9116 9.0432 76.1292 9.2736C76.3468 9.4912 76.4556 9.7664 76.4556 10.0992V18.0288ZM75.2844 7.68C74.8492 7.68 74.542 7.6096 74.3628 7.4688C74.1836 7.328 74.094 7.0784 74.094 6.72V6.3552C74.094 5.9968 74.19 5.7472 74.382 5.6064C74.574 5.4656 74.8812 5.3952 75.3036 5.3952C75.7516 5.3952 76.0652 5.4656 76.2444 5.6064C76.4236 5.7472 76.5132 5.9968 76.5132 6.3552V6.72C76.5132 7.0912 76.4172 7.3472 76.2252 7.488C76.046 7.616 75.7324 7.68 75.2844 7.68Z" fill="white"/>
<path d="M84.3147 8.736C85.6203 8.736 86.5227 9.1264 87.0219 9.9072C87.5211 10.6752 87.7707 11.744 87.7707 13.1136V18.0288C87.7707 18.3616 87.6619 18.6432 87.4443 18.8736C87.2267 19.0912 86.9515 19.2 86.6187 19.2C86.2859 19.2 86.0107 19.0912 85.7931 18.8736C85.5755 18.6432 85.4667 18.3616 85.4667 18.0288V13.1136C85.4667 12.4096 85.3195 11.8592 85.0251 11.4624C84.7307 11.0528 84.2251 10.848 83.5083 10.848C82.7659 10.848 82.1835 11.0656 81.7611 11.5008C81.3387 11.9232 81.1275 12.4608 81.1275 13.1136V18.0288C81.1275 18.3616 81.0187 18.6432 80.8011 18.8736C80.5835 19.0912 80.3083 19.2 79.9755 19.2C79.6427 19.2 79.3675 19.0912 79.1499 18.8736C78.9323 18.6432 78.8235 18.3616 78.8235 18.0288V10.0992C78.8235 9.7664 78.9323 9.4912 79.1499 9.2736C79.3675 9.0432 79.6427 8.928 79.9755 8.928C80.3083 8.928 80.5835 9.0432 80.8011 9.2736C81.0187 9.4912 81.1275 9.7664 81.1275 10.0992V10.4256C81.4731 9.9648 81.9211 9.568 82.4715 9.2352C83.0347 8.9024 83.6491 8.736 84.3147 8.736Z" fill="white"/>
<path d="M0 12C0 11.1356 0.700772 10.4348 1.56522 10.4348H20.6957C21.5601 10.4348 22.2609 11.1356 22.2609 12V12C22.2609 12.8644 21.5601 13.5652 20.6957 13.5652H1.56522C0.700772 13.5652 0 12.8644 0 12V12Z" fill="white"/>
<path d="M22.2609 3.82609C22.2609 5.93918 20.5479 7.65217 18.4348 7.65217C16.3217 7.65217 14.6087 5.93918 14.6087 3.82609C14.6087 1.713 16.3217 0 18.4348 0C20.5479 0 22.2609 1.713 22.2609 3.82609Z" fill="white"/>
<path d="M7.65217 20.1739C7.65217 22.287 5.93918 24 3.82609 24C1.713 24 0 22.287 0 20.1739C0 18.0608 1.713 16.3478 3.82609 16.3478C5.93918 16.3478 7.65217 18.0608 7.65217 20.1739Z" fill="white"/>
<path d="M22.0432 22.6178C22.1883 22.7698 22.2609 22.9408 22.2609 23.1308C22.2609 23.3683 22.1548 23.5725 21.9427 23.7435C21.7306 23.9145 21.4962 24 21.2395 24C20.9157 24 20.6423 23.8765 20.419 23.6295L18.4097 21.5063L16.4506 23.6295C16.3501 23.7435 16.2273 23.8338 16.0822 23.9002C15.9483 23.9572 15.8031 23.9857 15.6469 23.9857C15.4124 23.9857 15.1892 23.9097 14.9771 23.7577C14.765 23.6058 14.6589 23.43 14.6589 23.2305C14.6589 23.0405 14.7427 22.86 14.9101 22.689L17.2376 20.2665L14.8264 17.7158C14.6813 17.5638 14.6087 17.3928 14.6087 17.2028C14.6087 16.9653 14.7092 16.7658 14.9101 16.6043C15.1222 16.4333 15.3622 16.3478 15.6301 16.3478C15.9538 16.3478 16.2273 16.4666 16.4506 16.7041L18.5101 18.8843L20.419 16.7326C20.6311 16.4761 20.899 16.3478 21.2227 16.3478C21.4906 16.3478 21.7139 16.4286 21.8925 16.5901C22.0823 16.7421 22.1772 16.9178 22.1772 17.1173C22.1772 17.3263 22.099 17.5116 21.9427 17.6731L19.632 20.067L22.0432 22.6178Z" fill="white"/>
<path d="M7.4345 6.26994C7.57962 6.42194 7.65217 6.59294 7.65217 6.78293C7.65217 7.02043 7.54613 7.22468 7.33403 7.39568C7.12194 7.56668 6.88751 7.65217 6.63077 7.65217C6.30704 7.65217 6.03355 7.52868 5.81029 7.28168L3.80097 5.15845L1.84188 7.28168C1.74141 7.39568 1.61862 7.48593 1.4735 7.55243C1.33955 7.60942 1.19443 7.63792 1.03815 7.63792C0.80373 7.63792 0.580471 7.56192 0.368376 7.40993C0.156281 7.25793 0.0502331 7.08218 0.0502331 6.88268C0.0502331 6.69268 0.133955 6.51219 0.301399 6.34119L2.62887 3.91871L0.217677 1.36799C0.0725589 1.21599 0 1.04499 0 0.854991C0 0.617494 0.100466 0.417996 0.301399 0.256498C0.513494 0.0854992 0.753496 0 1.02141 0C1.34513 0 1.61862 0.118749 1.84188 0.356246L3.90144 2.53647L5.81029 0.384746C6.02239 0.128248 6.2903 0 6.61402 0C6.88193 0 7.10519 0.0807491 7.2838 0.242248C7.47357 0.394246 7.56845 0.569994 7.56845 0.769492C7.56845 0.97849 7.49031 1.16374 7.33403 1.32524L5.02331 3.71921L7.4345 6.26994Z" fill="white"/>
</svg>
