<svg width="406" height="306" viewBox="0 0 406 306" fill="none" xmlns="http://www.w3.org/2000/svg">
<path opacity="0.3" d="M195.875 264.518C284.646 264.518 356.61 256.352 356.61 246.278C356.61 236.205 284.646 228.039 195.875 228.039C107.103 228.039 35.1393 236.205 35.1393 246.278C35.1393 256.352 107.103 264.518 195.875 264.518Z" fill="#E6E6E6"/>
<path d="M84.245 137.044C84.245 137.044 60.3621 148.483 57.246 174.843C54.13 201.202 45.3299 252.105 110.117 249.202C174.905 246.299 205.456 242.685 190.181 193.184C174.905 143.682 84.245 137.044 84.245 137.044Z" fill="#FFD200"/>
<path opacity="0.09" d="M81.7989 150.737C81.1292 154.456 81.5927 158.292 83.1293 161.745C84.6658 165.198 87.2046 168.11 90.4163 170.103C99.2062 175.898 112.746 196.493 123.231 206.907C124.867 208.529 126.16 210.464 127.032 212.597C127.904 214.73 128.337 217.016 128.306 219.32C128.306 221.198 129.067 223.279 131.544 225.309C138.832 231.267 169.414 234.241 186.516 215.91C203.619 197.579 181.066 188.505 181.066 188.505L105.895 147.813L81.7989 150.737Z" fill="black"/>
<path d="M247.964 240.473C247.964 240.473 249.558 244.533 253.557 245.406C257.556 246.278 259.728 251.232 250.989 250.481C242.25 249.729 237.449 251.049 238.708 246.248C239.966 241.447 239.398 240.726 239.398 240.726L247.964 240.473Z" fill="#F4A28C"/>
<path d="M189.277 237.093C189.277 237.093 188.607 241.366 191.581 244.198C194.555 247.03 193.926 252.318 186.811 247.243C179.696 242.168 174.874 240.838 178.396 237.347C181.918 233.855 181.797 232.941 181.797 232.941L189.277 237.093Z" fill="#F4A28C"/>
<path d="M196.91 176.345C196.91 176.345 250.35 176.893 249.832 240.625L237.226 242.767C237.226 242.767 234.8 175.462 165.354 207.526L168.977 181.014L196.91 176.345Z" fill="#24285B"/>
<path opacity="0.09" d="M196.91 176.345C196.91 176.345 250.35 176.893 249.832 240.625L237.226 242.767C237.226 242.767 234.8 175.462 165.354 207.526L168.977 181.014L196.91 176.345Z" fill="black"/>
<path d="M201.102 117.678L205.74 118.916L202.442 115.364L201.102 117.678Z" fill="#FFD200"/>
<path d="M128.205 149.224C128.205 149.224 137.441 172.569 159.984 168.458C182.527 164.348 191.094 117.059 191.094 117.059C191.094 117.059 200.006 111.263 195.692 104.798C191.378 98.3321 184.365 112.319 184.365 112.319C184.365 112.319 174.651 152.168 153.63 139.247L128.205 149.224Z" fill="#F4A28C"/>
<path opacity="0.09" d="M128.205 149.224C128.205 149.224 137.441 172.569 159.984 168.458C182.527 164.348 191.094 117.059 191.094 117.059C191.094 117.059 200.006 111.263 195.692 104.798C191.378 98.3321 184.365 112.319 184.365 112.319C184.365 112.319 174.651 152.168 153.63 139.247L128.205 149.224Z" fill="black"/>
<path d="M128.489 101.803L133.361 102.818C133.361 102.818 171.017 123.26 164.014 143.733C157.01 164.206 172.306 183.643 172.306 183.643L139.562 206.704C139.562 206.704 96.7904 185.48 103.195 127.016C103.195 127.016 106.169 99.7835 128.489 101.803Z" fill="#FF4D80"/>
<path d="M215.025 113.361L208.851 110.392L183.503 163.109L189.677 166.078L215.025 113.361Z" fill="#E6E6E6"/>
<path opacity="0.58" d="M302.47 236.23C302.47 236.23 292.076 233.388 289.813 223.715C289.813 223.715 305.921 220.457 306.378 237.083L302.47 236.23Z" fill="#FF4D80"/>
<path opacity="0.73" d="M303.718 235.215C303.718 235.215 296.451 223.735 302.845 212.997C302.845 212.997 315.097 220.771 309.656 235.245L303.718 235.215Z" fill="#FF4D80"/>
<path d="M305.586 235.215C305.586 235.215 309.423 223.086 321.024 220.792C321.024 220.792 323.206 228.668 313.513 235.245L305.586 235.215Z" fill="#FF4D80"/>
<path d="M298.045 234.921L300.156 249.344L313.432 249.395L315.391 234.992L298.045 234.921Z" fill="#24285B"/>
<path opacity="0.66" d="M279.927 35.5543H206.258V87.1366H279.927V35.5543Z" fill="#E6E6E6"/>
<path opacity="0.43" d="M346.024 107.812H279.49V154.401H346.024V107.812Z" fill="#E6E6E6"/>
<path d="M225.695 59.5287C230.443 59.5287 234.292 55.6797 234.292 50.9316C234.292 46.1836 230.443 42.3346 225.695 42.3346C220.947 42.3346 217.098 46.1836 217.098 50.9316C217.098 55.6797 220.947 59.5287 225.695 59.5287Z" fill="#E6E6E6"/>
<path opacity="0.45" d="M269.026 43.6338H244.818V77.2607H269.026V43.6338Z" fill="#F04C7B"/>
<path d="M235.206 65.984H218.58V77.2607H235.206V65.984Z" fill="#FF4D80"/>
<path d="M126.702 76.1239L119.922 100.027L133.361 102.818L132.904 84.3048L126.702 76.1239Z" fill="#F4A28C"/>
<path opacity="0.31" d="M133.178 88.3546C131.547 87.7185 130.137 86.6218 129.118 85.198C129.118 85.198 128.773 89.7351 133.178 94.7796V88.3546Z" fill="#CE8172"/>
<path d="M140.618 76.875C140.618 76.875 139.948 84.4266 137.817 89.1464C137.611 89.6065 137.316 90.021 136.948 90.3657C136.58 90.7105 136.147 90.9785 135.675 91.1543C135.203 91.33 134.7 91.4099 134.196 91.3893C133.693 91.3687 133.198 91.248 132.742 91.0343C130.377 89.9279 127.504 87.7457 127.372 83.6552L126.296 76.7431C126.229 75.336 126.598 73.9425 127.354 72.7539C128.11 71.5653 129.216 70.64 130.519 70.105C135.289 67.74 141.258 72.2466 140.618 76.875Z" fill="#F4A28C"/>
<path d="M131.554 81.8079C131.554 81.8079 132.011 78.9253 129.808 78.7629C127.606 78.6005 126.926 82.762 129.808 83.6654L131.554 81.8079Z" fill="#F4A28C"/>
<path d="M139.948 81.5542L141.521 84.8022C141.61 84.987 141.651 85.1912 141.64 85.396C141.629 85.6007 141.566 85.7993 141.458 85.9734C141.35 86.1475 141.199 86.2915 141.02 86.3919C140.842 86.4924 140.64 86.546 140.435 86.548H137.492L139.948 81.5542Z" fill="#F4A28C"/>
<path d="M202.447 115.362L179.258 101.974L177.924 104.286L201.112 117.674L202.447 115.362Z" fill="#24285B"/>
<path opacity="0.18" d="M147.073 194.006L139.562 206.704C139.562 206.704 112.33 193.509 104.525 157.801C96.7193 122.093 122.47 136.009 122.47 136.009L147.073 194.006Z" fill="black"/>
<path d="M139.562 206.704C139.562 206.704 164.795 155.264 202.107 155.456C239.418 155.649 190.942 238.463 190.942 238.463L178.64 233.459C178.64 233.459 196.91 197.934 192.261 186.495C187.613 175.056 180.508 253.962 139.562 206.704Z" fill="#24285B"/>
<path d="M117.973 104.686C117.973 104.686 129.199 98.9919 134.904 110.563C140.608 122.134 136.112 171.899 159.264 174.508C182.416 177.116 194.159 153 194.159 153C194.159 153 196.068 142.85 199.234 141.165C202.401 139.48 205.192 150.148 199.234 156.39C199.234 156.39 189.023 194.747 156.604 195.61C124.185 196.472 86.0111 130.954 117.973 104.686Z" fill="#F4A28C"/>
<path d="M140.669 67.0295C140.669 67.0295 148.048 75.7078 138.497 77.5246C128.946 79.3415 126.976 81.0568 127.89 90.7196C128.803 100.382 132.589 109.284 119.922 115.344C107.255 121.403 118.146 131.584 115.811 143.459C113.477 155.335 102.342 163.536 88.0817 155.436C73.8209 147.336 65.0209 126.61 80.3068 114.197C95.5927 101.783 114.817 98.7686 114.817 78.7528C114.817 58.737 130.793 57.7017 140.669 67.0295Z" fill="#24285B"/>
<path opacity="0.43" d="M300.633 141.957C306.317 141.957 310.925 137.349 310.925 131.665C310.925 125.98 306.317 121.373 300.633 121.373C294.949 121.373 290.341 125.98 290.341 131.665C290.341 137.349 294.949 141.957 300.633 141.957Z" fill="#FF4D80"/>
<path opacity="0.43" d="M317.289 115.892H299.395V133.786H317.289V115.892Z" fill="#F04C7B"/>
<path opacity="0.43" d="M336.483 115.892H323.135V145.55H336.483V115.892Z" fill="#FF4D80"/>
<path d="M201.697 155.717L192.241 152.112L190.205 157.452L199.661 161.057L201.697 155.717Z" fill="#FF4D80"/>
<path opacity="0.44" d="M201.697 155.717L192.241 152.112L190.205 157.452L199.661 161.057L201.697 155.717Z" fill="white"/>
</svg>
