<svg width="116" height="116" viewBox="0 0 116 116" fill="none" xmlns="http://www.w3.org/2000/svg">
<g filter="url(#filter0_d)">
<circle cx="58" cy="51" r="42" fill="white"/>
</g>
<path d="M70.9506 39.7915L78.8288 40.3654L79.4027 32.4874L76.7029 32.2907L76.4771 35.3903C72.1522 30.7111 66.0622 28 59.5974 28C46.915 28 36.5974 38.3178 36.5974 51C36.5974 63.6821 46.9152 73.9999 59.5975 73.9999C67.2662 73.9999 74.4077 70.1852 78.7008 63.7956L76.4538 62.2859C72.6646 67.9259 66.3631 71.2929 59.5975 71.2929C48.4078 71.293 39.3044 62.1895 39.3044 51C39.3044 39.8104 48.4077 30.707 59.5974 30.707C65.3519 30.707 70.7695 33.1441 74.5923 37.3426L71.1473 37.0916L70.9506 39.7915Z" fill="#FF4D80"/>
<path d="M48.3001 53.542C48.3001 52.6718 49.1704 52.107 50.4069 51.481C51.8266 50.7635 52.819 49.9391 52.819 48.1681C52.819 46.0765 51.4754 44.7789 49.0634 44.7789C46.9871 44.7789 45.4452 45.7713 44.7735 46.5346L46.2849 48.1529C46.8344 47.5881 47.7505 46.9469 48.7276 46.9469C49.5213 46.9469 50.0405 47.3743 50.0405 48.1987C50.0405 49.4811 48.7733 50.0307 47.4757 50.6108C45.2773 51.6031 44.7429 52.9161 44.7429 55.7404H52.8343V53.542H48.3001V53.542Z" fill="#FF4D80"/>
<path d="M60.6507 51.2673V44.8857H58.9714L53.9333 51.2673V53.4504H58.208V55.7251H60.6507V53.4504H61.9942V51.2673H60.6507ZM58.4828 51.2672H56.3607L58.4828 48.5497V51.2672Z" fill="#FF4D80"/>
<path d="M68.6046 47.5727C67.429 47.5727 66.4062 48.1222 65.826 49.0688V44.5957H63.3833V55.7405H65.826V51.1452C66.1314 50.2903 66.9406 49.7254 67.5206 49.7254C68.2229 49.7254 68.6808 50.1987 68.6808 51.2369V55.7405H71.1236V50.6109C71.1235 49.2216 70.757 47.5727 68.6046 47.5727Z" fill="#FF4D80"/>
<defs>
<filter id="filter0_d" x="0" y="0" width="116" height="116" filterUnits="userSpaceOnUse" color-interpolation-filters="sRGB">
<feFlood flood-opacity="0" result="BackgroundImageFix"/>
<feColorMatrix in="SourceAlpha" type="matrix" values="0 0 0 0 0 0 0 0 0 0 0 0 0 0 0 0 0 0 127 0"/>
<feOffset dy="7"/>
<feGaussianBlur stdDeviation="8"/>
<feColorMatrix type="matrix" values="0 0 0 0 0 0 0 0 0 0 0 0 0 0 0 0 0 0 0.08 0"/>
<feBlend mode="normal" in2="BackgroundImageFix" result="effect1_dropShadow"/>
<feBlend mode="normal" in="SourceGraphic" in2="effect1_dropShadow" result="shape"/>
</filter>
</defs>
</svg>
