<svg width="116" height="116" viewBox="0 0 116 116" fill="none" xmlns="http://www.w3.org/2000/svg">
<g filter="url(#filter0_d)">
<circle cx="58" cy="51" r="42" fill="white"/>
</g>
<path d="M58.0001 28C45.3188 28 35 38.3188 35 51.0001C35 63.6815 45.3188 73.9999 58.0001 73.9999C70.6815 73.9999 80.9999 63.6815 80.9999 51.0001C80.9999 38.3188 70.6815 28 58.0001 28V28ZM58.0001 70.8635C47.0477 70.8635 38.1364 61.9521 38.1364 51.0001C38.1364 40.0477 47.0477 31.1364 58.0001 31.1364C68.9521 31.1364 77.8635 40.0477 77.8635 51.0001C77.8635 61.9521 68.9521 70.8635 58.0001 70.8635V70.8635Z" fill="#FF4D80"/>
<path d="M56.0365 49.9105C58.3221 49.5927 60.0909 47.6252 60.0909 45.25C60.0909 42.6572 57.9791 40.5454 55.3864 40.5454H51.2044C50.3388 40.5454 49.6362 41.248 49.6362 42.1136V48.3676V48.4051V53.6135C49.6362 54.4791 50.3388 55.1816 51.2044 55.1816C52.0701 55.1816 52.7726 54.4791 52.7726 53.6135V51.4327L57.6111 54.8891C57.8872 55.0878 58.205 55.1816 58.5208 55.1816C59.0097 55.1816 59.4929 54.9538 59.798 54.525C60.2999 53.8206 60.1391 52.842 59.4324 52.3382L56.0365 49.9105ZM52.7726 46.8181V43.6818H55.3864C56.2501 43.6818 56.9545 44.3862 56.9545 45.25C56.9545 46.1137 56.2501 46.8181 55.3864 46.8181H52.7726Z" fill="#FF4D80"/>
<path d="M65.8411 46.8181H61.6591C60.7935 46.8181 60.0909 47.5207 60.0909 48.3863V59.8862C60.0909 60.7518 60.7935 61.4543 61.6591 61.4543C62.5248 61.4543 63.2273 60.7518 63.2273 59.8862V56.2272H65.8411C68.4338 56.2272 70.5456 54.1154 70.5456 51.5227C70.5456 48.93 68.4338 46.8181 65.8411 46.8181V46.8181ZM65.8411 53.0908H63.2273V49.9545H65.8411C66.7044 49.9545 67.4092 50.6589 67.4092 51.5227C67.4092 52.3864 66.7044 53.0908 65.8411 53.0908V53.0908Z" fill="#FF4D80"/>
<defs>
<filter id="filter0_d" x="0" y="0" width="116" height="116" filterUnits="userSpaceOnUse" color-interpolation-filters="sRGB">
<feFlood flood-opacity="0" result="BackgroundImageFix"/>
<feColorMatrix in="SourceAlpha" type="matrix" values="0 0 0 0 0 0 0 0 0 0 0 0 0 0 0 0 0 0 127 0"/>
<feOffset dy="7"/>
<feGaussianBlur stdDeviation="8"/>
<feColorMatrix type="matrix" values="0 0 0 0 0 0 0 0 0 0 0 0 0 0 0 0 0 0 0.08 0"/>
<feBlend mode="normal" in2="BackgroundImageFix" result="effect1_dropShadow"/>
<feBlend mode="normal" in="SourceGraphic" in2="effect1_dropShadow" result="shape"/>
</filter>
</defs>
</svg>
