<svg width="17" height="17" viewBox="0 0 17 17" fill="none" xmlns="http://www.w3.org/2000/svg">
<path d="M0.335062 13.8798C1.90898 14.8785 3.74073 15.4062 5.63198 15.4062C8.40156 15.4062 10.9395 14.3423 12.7791 12.4107C14.5393 10.5619 15.5076 8.07782 15.4594 5.55686C16.1266 4.98594 16.9115 3.89582 16.9115 2.83332C16.9115 2.42603 16.4695 2.16748 16.1111 2.37503C15.4842 2.74336 14.9126 2.83969 14.3246 2.67465C13.124 1.50448 11.3369 1.25798 9.83098 2.06973C8.51489 2.77807 7.78319 4.07432 7.84906 5.49098C5.6256 5.21969 3.57144 4.10478 2.13919 2.37219C1.90402 2.08957 1.45777 2.12286 1.27077 2.44303C0.580853 3.62453 0.587937 4.99373 1.18789 6.09944C0.902437 6.14973 0.726062 6.38986 0.726062 6.64982C0.726062 7.76119 1.22614 8.78261 2.03152 9.47961C1.88135 9.62411 1.83177 9.83873 1.89552 10.03C2.24969 11.0939 3.05152 11.9255 4.05381 12.342C2.96369 12.8626 1.7581 13.0361 0.684978 12.9044C0.129645 12.8293 -0.14448 13.5759 0.335062 13.8798ZM5.77719 12.524C6.17456 12.2187 5.96348 11.5826 5.46481 11.572C4.58648 11.5536 3.78677 11.1208 3.28881 10.4401C3.52894 10.4245 3.77756 10.3877 4.01414 10.3239C4.55319 10.178 4.52769 9.40027 3.98014 9.29048C2.98635 9.09073 2.20648 8.36682 1.91394 7.43465C2.18098 7.50052 2.45298 7.53736 2.72427 7.54232C3.26189 7.54515 3.46519 6.85594 3.02673 6.56765C2.0386 5.91669 1.61714 4.76707 1.89623 3.68615C3.62173 5.43432 5.96277 6.48761 8.4391 6.60661C8.79398 6.62857 9.06031 6.29494 8.98239 5.95707C8.64594 4.49861 9.46052 3.47648 10.3353 3.00544C11.2009 2.53794 12.5906 2.39203 13.656 3.50978C13.9726 3.8434 15.0408 3.85615 15.5841 3.72936C15.3404 4.18836 14.9657 4.62398 14.6151 4.86907C14.4656 4.9739 14.3799 5.14815 14.3891 5.33019C14.5031 7.65707 13.6361 9.97048 12.0105 11.6769C10.3729 13.396 8.10831 14.343 5.63269 14.343C4.6481 14.343 3.68264 14.1829 2.77031 13.8741C3.86114 13.663 4.89744 13.2012 5.77719 12.524Z" fill="white"/>
</svg>
