<?xml version="1.0" encoding="utf-8"?>
<!-- Generator: Adobe Illustrator 17.0.0, SVG Export Plug-In . SVG Version: 6.00 Build 0)  -->
<!DOCTYPE svg PUBLIC "-//W3C//DTD SVG 1.1//EN" "http://www.w3.org/Graphics/SVG/1.1/DTD/svg11.dtd">
<svg version="1.1" id="圖層_1" xmlns="http://www.w3.org/2000/svg" xmlns:xlink="http://www.w3.org/1999/xlink" x="0px" y="0px"
	 width="400px" height="146px" viewBox="0 0 400 146" enable-background="new 0 0 400 146" xml:space="preserve">
<g>
	<path fill="#F5B919" d="M67.014,11.723C29.841,11.825-0.063,41.775,0,78.839c0.063,36.872,30.354,66.841,67.473,66.756
		c37.1-0.085,66.962-30.314,66.824-67.645C134.162,41.367,103.942,11.621,67.014,11.723z M67.226,23.115
		c30.81,0.058,55.6,24.867,55.581,55.622c-0.019,30.637-25.009,55.419-55.837,55.371c-30.561-0.047-55.496-24.987-55.472-55.485
		C11.522,47.932,36.496,23.056,67.226,23.115z"/>
	<path fill="#F5B919" d="M313.305,69.876c0,6.024,0.061,12.049-0.013,18.073c-0.162,13.153,5.853,22.765,17.55,28.15
		c17.031,7.841,34.537,7.818,51.57-0.012c11.726-5.39,17.621-15.082,17.587-28.172c-0.033-12.813-0.002-25.627-0.01-38.441
		c-0.003-4.227-1.23-5.459-5.428-5.471c-4.303-0.012-8.606-0.029-12.909,0.008c-3.293,0.029-4.519,1.05-4.928,4.296
		c-0.238,1.889-0.212,3.815-0.243,5.725c-0.176,10.803-0.332,21.606-0.497,32.409c-0.14,9.145-3.992,13.957-12.983,15.743
		c-5.403,1.073-10.858,0.951-16.136-0.848c-6.641-2.263-10.009-7.025-10.055-14.044c-0.079-12.048-0.127-24.095-0.202-36.143
		c-0.007-1.049-0.094-2.1-0.186-3.146c-0.23-2.618-1.675-3.976-4.304-3.988c-4.877-0.022-9.754-0.063-14.63,0.011
		c-2.865,0.043-4.162,1.526-4.174,4.62C313.286,55.723,313.305,62.799,313.305,69.876z"/>
	<path fill="#F5B919" d="M242.698,44.001c-2.199,0-4.41,0.144-6.594-0.033c-3.47-0.282-5.287,1.581-6.49,4.487
		c-5.182,12.514-10.376,25.022-15.569,37.531c-1.243,2.995-2.5,5.985-3.746,8.979c-0.939,2.257-2.374,4.059-4.994,4.089
		c-2.763,0.032-4.211-1.839-5.193-4.209c-6.247-15.066-12.52-30.121-18.775-45.184c-2.142-5.156-2.884-5.661-8.54-5.661
		c-4.111,0-8.222-0.014-12.333,0.005c-3.62,0.016-4.851,1.794-3.393,5.143c2.323,5.336,4.773,10.617,7.181,15.915
		c6.67,14.679,13.366,29.345,20.012,44.035c3.714,8.211,9.776,12.745,19.029,12.46c2.578-0.079,5.178,0.073,7.732-0.209
		c6.905-0.762,11.634-4.778,14.438-10.852c9.396-20.355,18.628-40.785,27.875-61.208c1.587-3.505,0.356-5.266-3.47-5.286
		C247.478,43.991,245.088,44.001,242.698,44.001z"/>
	<path fill="#F5B919" d="M293.298,82.758c0-11.37,0.01-22.74-0.006-34.11c-0.006-3.941-0.73-4.643-4.688-4.658
		c-4.108-0.016-8.217-0.012-12.325-0.001c-4.185,0.011-5.046,0.815-5.052,5.027c-0.024,19.587-0.013,39.174-0.012,58.761
		c0,3.248,0.056,6.498,0.008,9.745c-0.04,2.744,1.188,4.033,3.974,3.989c4.585-0.072,9.173,0.008,13.758-0.062
		c3.365-0.051,4.33-1.093,4.336-4.58C293.31,105.498,293.298,94.128,293.298,82.758z"/>
	<path fill="#F5B919" d="M269.058,13.783c0.035,7.439,5.851,13.12,13.382,13.071c7.249-0.047,13.091-5.905,13.107-13.141
		c0.016-7.293-6.006-13.31-13.319-13.308C274.905,0.408,269.023,6.382,269.058,13.783z"/>
	<path fill="#F5B919" d="M43.586,49.131c0,1.626,0.16,3.27-0.034,4.873c-0.395,3.266,1.285,4.899,4.07,6.036
		c11.658,4.758,23.286,9.592,34.925,14.398c0.529,0.218,1.062,0.427,1.593,0.64c2.046,0.817,3.885,1.895,3.808,4.44
		c-0.072,2.365-1.799,3.371-3.765,4.174c-7.418,3.031-14.816,6.111-22.219,9.179c-4.935,2.045-9.849,4.141-14.806,6.133
		c-2.519,1.012-3.76,2.614-3.616,5.457c0.179,3.529,0.028,7.074,0.048,10.612c0.019,3.386,1.365,4.258,4.522,2.836
		c10.701-4.82,21.383-9.68,32.075-14.521c4.607-2.086,9.172-4.272,13.837-6.219c11.867-4.953,12.905-11.014,11.929-22.43
		c-0.486-5.685-3.993-9.431-8.976-11.709c-16.227-7.42-32.499-14.74-48.773-22.058c-3.319-1.492-4.597-0.604-4.617,2.996
		C43.578,45.688,43.586,47.41,43.586,49.131z"/>
</g>
<g>
</g>
<g>
</g>
<g>
</g>
<g>
</g>
<g>
</g>
<g>
</g>
</svg>
