<svg width="385" height="306" viewBox="0 0 385 306" fill="none" xmlns="http://www.w3.org/2000/svg">
<path opacity="0.3" d="M112.353 74.6928C83.2274 84.6195 60.6375 112.532 54.7759 147.448C49.8383 176.883 58.0292 213.037 105.885 229.836C154.732 246.969 291.329 255.211 316.672 207.506C342.015 159.801 336.759 98.6163 284.679 76.875C248.181 61.7109 169.236 55.2961 112.353 74.6928Z" fill="#E6E6E6"/>
<path d="M107.79 238.534L187.995 238.534V259.301H107.79V238.534Z" fill="#F5B9CA"/>
<path d="M101.9 217.767L174.174 217.767V238.534L101.9 238.534V217.767Z" fill="#E6E6E6"/>
<path d="M255.284 252.673C255.284 252.673 256.448 256.408 259.384 256.733C262.32 257.058 263.08 260.316 260.443 261.179C257.806 262.041 251.01 258.134 251.01 258.134L251.203 253.262L255.284 252.673Z" fill="#FF4D80"/>
<path d="M215.022 252.673C215.022 252.673 213.848 256.408 210.922 256.733C207.996 257.058 207.226 260.316 209.863 261.179C212.501 262.041 219.286 258.134 219.286 258.134L219.103 253.262L215.022 252.673Z" fill="#FF4D80"/>
<path d="M244.475 180.821L255.91 253.343H250.192L235.861 213.971C231.024 200.336 222.09 188.744 210.422 180.963L206.216 178.213L244.475 180.821Z" fill="#24285B"/>
<path d="M206.225 178.213L212.135 253.323H219.729C219.729 253.323 217.958 196.797 231.664 184.759L206.225 178.213Z" fill="#24285B"/>
<path d="M204.387 115.344C204.387 115.344 174.982 148.94 154.549 159.171L158.399 169.494C158.399 169.494 207.9 151.549 217.265 137.592C226.63 123.636 204.387 115.344 204.387 115.344Z" fill="#FF4D80"/>
<path opacity="0.46" d="M204.387 115.344C204.387 115.344 174.982 148.94 154.549 159.171L158.399 169.494C158.399 169.494 207.9 151.549 217.265 137.592C226.63 123.636 204.387 115.344 204.387 115.344Z" fill="white"/>
<path d="M231.154 85.0864C231.154 85.0864 230.057 90.679 230.528 94.5563C230.576 94.9312 230.693 95.2925 230.873 95.6195C231.053 95.9466 231.293 96.2329 231.578 96.462C231.863 96.6912 232.188 96.8587 232.535 96.9549C232.882 97.0511 233.243 97.0742 233.599 97.0228C234.753 96.9327 235.859 96.4931 236.783 95.7567C237.706 95.0203 238.409 94.0185 238.806 92.8714L240.971 88.1111C241.311 87.1099 241.348 86.022 241.075 84.9981C240.803 83.9743 240.235 83.0651 239.451 82.3966C236.679 79.717 231.664 81.6354 231.154 85.0864Z" fill="#F4A28C"/>
<path d="M240.577 88.9738L241.28 107.69L231.472 107.366L234.898 93.8762L240.577 88.9738Z" fill="#F4A28C"/>
<path d="M232.463 85.4923C234.118 85.7641 235.797 85.8356 237.468 85.7055C236.902 86.4182 236.546 87.2897 236.443 88.2129C236.341 89.1362 236.496 90.0709 236.89 90.9023C237.257 91.7148 237.879 92.3677 238.652 92.7492C239.425 93.1306 240.299 93.2169 241.125 92.9932L241.857 85.6852C241.996 84.6447 241.865 83.5841 241.478 82.6157C241.092 81.6472 240.465 80.807 239.662 80.1839C238.968 79.641 238.242 79.146 237.487 78.702C235.562 77.6159 232.521 78.702 230.894 77.0069C230.729 76.845 230.527 76.7306 230.307 76.6746C230.088 76.6186 229.859 76.6228 229.641 76.687C229.424 76.7512 229.226 76.8731 229.066 77.041C228.906 77.209 228.79 77.4174 228.728 77.6464C228.17 79.8286 228.151 83.371 230.865 84.9341C231.365 85.2118 231.905 85.4004 232.463 85.4923V85.4923Z" fill="#24285B"/>
<path d="M236.332 90.6586C236.332 90.6586 236.611 88.4764 238.151 88.8418C239.691 89.2072 239.297 92.3537 237.189 92.3841L236.332 90.6586Z" fill="#F4A28C"/>
<path d="M230.634 88.649L228.882 90.679C228.786 90.7938 228.718 90.9322 228.685 91.0816C228.651 91.231 228.654 91.3868 228.692 91.5349C228.73 91.683 228.803 91.8187 228.903 91.9298C229.004 92.0409 229.129 92.1238 229.267 92.1711L231.279 92.841L230.634 88.649Z" fill="#F4A28C"/>
<path opacity="0.31" d="M234.032 96.7995C235.279 96.6276 236.45 96.0735 237.401 95.2059C237.401 95.2059 236.881 98.596 232.964 101.509L234.032 96.7995Z" fill="#CE8172"/>
<path d="M206.225 178.913L222.722 180.192L244.475 181.897C244.947 181.187 263.532 152.909 263.157 131.309C262.955 119.901 257.469 110.37 241.26 107.711L234.59 107.487C232.963 107.432 231.34 107.279 229.729 107.031C224.58 106.208 209.113 105.204 200.71 120.632C190.575 139.318 206.225 178.913 206.225 178.913Z" fill="#FF4D80"/>
<path opacity="0.08" d="M222.337 180.405L244.475 181.907C244.947 181.197 263.532 152.919 263.157 131.32C250.645 125.23 230.432 123.118 230.432 123.118C230.432 123.118 226.303 127.605 231.212 133.796C237.247 141.409 239.374 151.823 235.774 160.998C233.445 166.906 230.124 176.284 222.742 180.212L222.337 180.405Z" fill="black"/>
<path d="M232.145 115.638C234.122 112.904 236.876 110.908 240.006 109.942C243.135 108.976 246.475 109.09 249.538 110.268C261.088 114.582 280.829 124.884 282.956 145.306C285.968 174.315 241.992 180.679 241.992 180.679L240.567 173.3C240.567 173.3 286.122 146.443 241.992 132.913C241.992 132.913 224.34 126.762 232.145 115.638Z" fill="#FF4D80"/>
<path opacity="0.46" d="M232.145 115.638C234.122 112.904 236.876 110.908 240.006 109.942C243.135 108.976 246.475 109.09 249.538 110.268C261.088 114.582 280.829 124.884 282.956 145.306C285.968 174.315 241.992 180.679 241.992 180.679L240.567 173.3C240.567 173.3 286.122 146.443 241.992 132.913C241.992 132.913 224.34 126.762 232.145 115.638Z" fill="white"/>
<path d="M240.509 174.376C240.509 174.376 232.973 174.518 234.301 179.451C235.63 184.384 242.001 180.638 242.001 180.638L240.509 174.376Z" fill="#F4A28C"/>
<path d="M155.184 160.846C155.107 160.663 147.792 159.831 147.33 160.338C146.29 161.506 148.956 161.983 148.956 161.983C148.956 161.983 144.991 161.983 144.423 162.744C143.855 163.505 144.664 165.586 148.148 166.875C151.632 168.164 157.571 167.2 157.571 167.2L155.184 160.846Z" fill="#F4A28C"/>
<path d="M151.199 163.16C141.971 163.16 134.49 157.761 134.49 151.102C134.49 144.442 141.971 139.044 151.199 139.044C160.427 139.044 167.908 144.442 167.908 151.102C167.908 157.761 160.427 163.16 151.199 163.16Z" fill="#C9C9C9"/>
<path d="M151.199 131.249C128.543 131.249 110.177 111.881 110.177 87.9893C110.177 64.0978 128.543 44.73 151.199 44.73C173.855 44.73 192.221 64.0978 192.221 87.9893C192.221 111.881 173.855 131.249 151.199 131.249Z" fill="#FFD200"/>
<path d="M132.719 126.722L169.679 126.722V154.167H132.719V126.722Z" fill="#24285B"/>
<path d="M159.842 126.722C159.842 124.621 167.908 83.4521 167.908 83.4521L135.52 83.4521L144.259 126.722" stroke="#24285B" stroke-width="1.015" stroke-miterlimit="10"/>
<path opacity="0.58" d="M122.979 207.465C122.979 207.465 130.679 205.242 132.363 197.68C132.363 197.68 120.418 195.133 120.082 208.135L122.979 207.465Z" fill="#FF4D80"/>
<path opacity="0.73" d="M122.035 206.663C122.035 206.663 127.416 197.68 122.68 189.286C122.68 189.286 113.594 195.376 117.627 206.673L122.035 206.663Z" fill="#FF4D80"/>
<path d="M120.649 206.663C120.649 206.663 117.762 197.183 109.196 195.386C109.196 195.386 107.579 201.547 114.769 206.693L120.649 206.663Z" fill="#FF4D80"/>
<path d="M126.232 206.45L124.673 217.727L114.836 217.767L113.383 206.511L126.232 206.45Z" fill="#24285B"/>
</svg>
